<?xml version='1.0' encoding='utf-8'?>
<mlt title="Anonymous Submission" version="6.2.0" root="/home/tmorris" producer="main bin" LC_NUMERIC="en_AU.UTF-8">
 <profile width="1280" frame_rate_den="1001" height="720" display_aspect_num="16" display_aspect_den="9" frame_rate_num="30000" colorspace="709" sample_aspect_den="1" description="HD 720p 29.97 fps" progressive="1" sample_aspect_num="1"/>
 <producer id="1" title="Anonymous Submission" out="56879" in="0">
  <property name="length">00:31:37;26</property>
  <property name="eof">pause</property>
  <property name="resource">work/20161126-vh-mfy-ybaf/media/YBAF2-Nov-26-2016-0030Z.mp3</property>
  <property name="audio_index">0</property>
  <property name="video_index">-1</property>
  <property name="mute_on_pause">1</property>
  <property name="mlt_service">avformat-novalidate</property>
  <property name="meta.media.nb_streams">1</property>
  <property name="meta.media.0.stream.type">audio</property>
  <property name="meta.media.0.codec.sample_fmt">s16p</property>
  <property name="meta.media.0.codec.sample_rate">22050</property>
  <property name="meta.media.0.codec.channels">1</property>
  <property name="meta.media.0.codec.name">mp3</property>
  <property name="meta.media.0.codec.long_name">MP3 (MPEG audio layer 3)</property>
  <property name="meta.media.0.codec.bit_rate">32000</property>
  <property name="meta.attr.title.markup">Nov-26-2016-0030Z             </property>
  <property name="meta.attr.artist.markup">YBAF Gnd/Twr #2 (LiveATC.net) </property>
  <property name="meta.attr.album.markup"/>
  <property name="meta.attr.date.markup"/>
  <property name="meta.attr.comment.markup"/>
  <property name="meta.attr.encoder.markup">Lavf55.32.100</property>
  <property name="seekable">1</property>
  <property name="kdenlive:folderid">-1</property>
  <property name="kdenlive:file_size">7600563</property>
  <property name="kdenlive:file_hash">c7c28b0e59e90ed673dbf1550a604653</property>
  <property name="global_feed">1</property>
 </producer>
 <producer id="2" title="Anonymous Submission" out="57000" in="0">
  <property name="length">00:31:41;27</property>
  <property name="eof">pause</property>
  <property name="resource">work/20161126-vh-mfy-ybaf/media/YBAF2-Nov-26-2016-0000Z.mp3</property>
  <property name="audio_index">0</property>
  <property name="video_index">-1</property>
  <property name="mute_on_pause">1</property>
  <property name="mlt_service">avformat-novalidate</property>
  <property name="meta.media.nb_streams">1</property>
  <property name="meta.media.0.stream.type">audio</property>
  <property name="meta.media.0.codec.sample_fmt">s16p</property>
  <property name="meta.media.0.codec.sample_rate">22050</property>
  <property name="meta.media.0.codec.channels">1</property>
  <property name="meta.media.0.codec.name">mp3</property>
  <property name="meta.media.0.codec.long_name">MP3 (MPEG audio layer 3)</property>
  <property name="meta.media.0.codec.bit_rate">32000</property>
  <property name="meta.attr.title.markup">Nov-26-2016-0000Z             </property>
  <property name="meta.attr.artist.markup">YBAF Gnd/Twr #2 (LiveATC.net) </property>
  <property name="meta.attr.album.markup"/>
  <property name="meta.attr.date.markup"/>
  <property name="meta.attr.comment.markup"/>
  <property name="meta.attr.encoder.markup">Lavf55.32.100</property>
  <property name="seekable">1</property>
  <property name="kdenlive:folderid">-1</property>
  <property name="kdenlive:file_size">7616654</property>
  <property name="kdenlive:file_hash">43056ec6412665dfa61d17224d329c4b</property>
  <property name="global_feed">1</property>
 </producer>
 <producer id="3" title="Anonymous Submission" out="56879" in="0">
  <property name="length">00:31:37;26</property>
  <property name="eof">pause</property>
  <property name="resource">work/20161126-vh-mfy-ybaf/media/YBAF2-Nov-25-2016-2330Z.mp3</property>
  <property name="audio_index">0</property>
  <property name="video_index">-1</property>
  <property name="mute_on_pause">1</property>
  <property name="mlt_service">avformat-novalidate</property>
  <property name="meta.media.nb_streams">1</property>
  <property name="meta.media.0.stream.type">audio</property>
  <property name="meta.media.0.codec.sample_fmt">s16p</property>
  <property name="meta.media.0.codec.sample_rate">22050</property>
  <property name="meta.media.0.codec.channels">1</property>
  <property name="meta.media.0.codec.name">mp3</property>
  <property name="meta.media.0.codec.long_name">MP3 (MPEG audio layer 3)</property>
  <property name="meta.media.0.codec.bit_rate">32000</property>
  <property name="meta.attr.title.markup">Nov-25-2016-2330Z             </property>
  <property name="meta.attr.artist.markup">YBAF Gnd/Twr #2 (LiveATC.net) </property>
  <property name="meta.attr.album.markup"/>
  <property name="meta.attr.date.markup"/>
  <property name="meta.attr.comment.markup"/>
  <property name="meta.attr.encoder.markup">Lavf55.32.100</property>
  <property name="seekable">1</property>
  <property name="kdenlive:folderid">-1</property>
  <property name="kdenlive:file_size">7600563</property>
  <property name="kdenlive:file_hash">945843d77141b7e33b3be1f5b52565a9</property>
  <property name="global_feed">1</property>
 </producer>
 <producer id="4" title="Anonymous Submission" out="56879" in="0">
  <property name="length">00:31:37;26</property>
  <property name="eof">pause</property>
  <property name="resource">/tmp/YBAF2-Nov-25-2016-2300Z.mp3</property>
  <property name="audio_index">0</property>
  <property name="video_index">-1</property>
  <property name="mute_on_pause">1</property>
  <property name="mlt_service">avformat-novalidate</property>
  <property name="meta.media.nb_streams">1</property>
  <property name="meta.media.0.stream.type">audio</property>
  <property name="meta.media.0.codec.sample_fmt">s16p</property>
  <property name="meta.media.0.codec.sample_rate">22050</property>
  <property name="meta.media.0.codec.channels">1</property>
  <property name="meta.media.0.codec.name">mp3</property>
  <property name="meta.media.0.codec.long_name">MP3 (MPEG audio layer 3)</property>
  <property name="meta.media.0.codec.bit_rate">32000</property>
  <property name="meta.attr.title.markup">Nov-25-2016-2300Z             </property>
  <property name="meta.attr.artist.markup">YBAF Gnd/Twr #2 (LiveATC.net) </property>
  <property name="meta.attr.album.markup"/>
  <property name="meta.attr.date.markup"/>
  <property name="meta.attr.comment.markup"/>
  <property name="meta.attr.encoder.markup">Lavf55.32.100</property>
  <property name="seekable">1</property>
  <property name="kdenlive:folderid">-1</property>
  <property name="kdenlive:file_size">7600563</property>
  <property name="kdenlive:file_hash">ac26e28b563402f26782374c35163097</property>
  <property name="global_feed">1</property>
 </producer>
 <producer id="5" title="Anonymous Submission" out="56879" in="0">
  <property name="length">00:31:37;26</property>
  <property name="eof">pause</property>
  <property name="resource">work/20161126-vh-mfy-ybaf/media/YBAF2-Nov-25-2016-2230Z.mp3</property>
  <property name="audio_index">0</property>
  <property name="video_index">-1</property>
  <property name="mute_on_pause">1</property>
  <property name="mlt_service">avformat-novalidate</property>
  <property name="meta.media.nb_streams">1</property>
  <property name="meta.media.0.stream.type">audio</property>
  <property name="meta.media.0.codec.sample_fmt">s16p</property>
  <property name="meta.media.0.codec.sample_rate">22050</property>
  <property name="meta.media.0.codec.channels">1</property>
  <property name="meta.media.0.codec.name">mp3</property>
  <property name="meta.media.0.codec.long_name">MP3 (MPEG audio layer 3)</property>
  <property name="meta.media.0.codec.bit_rate">32000</property>
  <property name="meta.attr.title.markup">Nov-25-2016-2230Z             </property>
  <property name="meta.attr.artist.markup">YBAF Gnd/Twr #2 (LiveATC.net) </property>
  <property name="meta.attr.album.markup"/>
  <property name="meta.attr.date.markup"/>
  <property name="meta.attr.comment.markup"/>
  <property name="meta.attr.encoder.markup">Lavf55.32.100</property>
  <property name="seekable">1</property>
  <property name="kdenlive:folderid">-1</property>
  <property name="kdenlive:file_size">7600563</property>
  <property name="kdenlive:file_hash">1304a3b331c3fb4de1f706271066936f</property>
  <property name="global_feed">1</property>
 </producer>
 <producer id="8" title="Anonymous Submission" out="17981" in="0">
  <property name="length">00:10:00;00</property>
  <property name="eof">pause</property>
  <property name="resource">Downloads/10 Minute Timer (count-up stopwatch).mp4</property>
  <property name="audio_index">1</property>
  <property name="video_index">0</property>
  <property name="mute_on_pause">1</property>
  <property name="mlt_service">avformat-novalidate</property>
  <property name="meta.media.nb_streams">2</property>
  <property name="meta.media.0.stream.type">video</property>
  <property name="meta.media.0.stream.frame_rate">25</property>
  <property name="meta.media.0.stream.sample_aspect_ratio">0</property>
  <property name="meta.media.0.codec.width">1280</property>
  <property name="meta.media.0.codec.height">720</property>
  <property name="meta.media.0.codec.rotate">0</property>
  <property name="meta.media.0.codec.frame_rate">50</property>
  <property name="meta.media.0.codec.pix_fmt">yuv420p</property>
  <property name="meta.media.0.codec.sample_aspect_ratio">1</property>
  <property name="meta.media.0.codec.colorspace">709</property>
  <property name="meta.media.0.codec.name">h264</property>
  <property name="meta.media.0.codec.long_name">H.264 / AVC / MPEG-4 AVC / MPEG-4 part 10</property>
  <property name="meta.media.0.codec.bit_rate">61770</property>
  <property name="meta.attr.0.stream.creation_time.markup">2016-08-15 13:12:36</property>
  <property name="meta.attr.0.stream.handler_name.markup">ISO Media file produced by Google Inc.</property>
  <property name="meta.media.1.stream.type">audio</property>
  <property name="meta.media.1.codec.sample_fmt">fltp</property>
  <property name="meta.media.1.codec.sample_rate">44100</property>
  <property name="meta.media.1.codec.channels">2</property>
  <property name="meta.media.1.codec.name">aac</property>
  <property name="meta.media.1.codec.long_name">AAC (Advanced Audio Coding)</property>
  <property name="meta.media.1.codec.bit_rate">125592</property>
  <property name="meta.attr.1.stream.creation_time.markup">2016-08-15 13:12:36</property>
  <property name="meta.attr.1.stream.handler_name.markup">ISO Media file produced by Google Inc.</property>
  <property name="meta.attr.major_brand.markup">mp42</property>
  <property name="meta.attr.minor_version.markup">0</property>
  <property name="meta.attr.compatible_brands.markup">isommp42</property>
  <property name="meta.attr.creation_time.markup">2016-08-15 13:12:36</property>
  <property name="seekable">1</property>
  <property name="meta.media.sample_aspect_num">1</property>
  <property name="meta.media.sample_aspect_den">1</property>
  <property name="aspect_ratio">1</property>
  <property name="kdenlive:folderid">-1</property>
  <property name="meta.media.frame_rate_num">25</property>
  <property name="meta.media.frame_rate_den">1</property>
  <property name="meta.media.colorspace">709</property>
  <property name="meta.media.color_trc">2</property>
  <property name="meta.media.width">1280</property>
  <property name="meta.media.height">720</property>
  <property name="meta.media.top_field_first">0</property>
  <property name="meta.media.progressive">1</property>
  <property name="kdenlive:file_size">14310317</property>
  <property name="kdenlive:file_hash">f4c97062df40acd5aa51430325136ca1</property>
  <property name="global_feed">1</property>
 </producer>
 <producer id="9" title="Anonymous Submission" out="149" in="0">
  <property name="length">150</property>
  <property name="eof">pause</property>
  <property name="resource"/>
  <property name="progressive">1</property>
  <property name="aspect_ratio">1</property>
  <property name="seekable">1</property>
  <property name="mlt_service">kdenlivetitle</property>
  <property name="kdenlive:clipname">Title clip</property>
  <property name="kdenlive:folderid">-1</property>
  <property name="xmldata">&lt;kdenlivetitle width="1280" duration="150" out="150" height="720" LC_NUMERIC="en_AU.UTF-8">
 &lt;item z-index="10" type="QGraphicsTextItem">
  &lt;position x="391" y="195">
   &lt;transform>1,0,0,0,1,0,0,0,1&lt;/transform>
  &lt;/position>
  &lt;content font-italic="0" letter-spacing="0" font-weight="50" box-height="42" shadow="0;#64000000;3;3;3" font="DejaVu Sans Mono" font-underline="0" font-pixel-size="36" box-width="498.453" font-color="255,255,255,255" alignment="1">Piper Warrior PA-28-161&lt;/content>
 &lt;/item>
 &lt;item z-index="9" type="QGraphicsTextItem">
  &lt;position x="354" y="626">
   &lt;transform>1,0,0,0,1,0,0,0,1&lt;/transform>
  &lt;/position>
  &lt;content font-italic="1" letter-spacing="0" font-weight="50" box-height="26" shadow="0;#64000000;3;3;3" font="DejaVu Sans Mono" font-underline="0" font-pixel-size="22" line-spacing="0" box-width="571.078" font-color="255,255,255,255" alignment="1">Produced with permission from PiC of VH-MFY&lt;/content>
 &lt;/item>
 &lt;item z-index="8" type="QGraphicsTextItem">
  &lt;position x="607" y="327">
   &lt;transform>1,0,0,0,1,0,0,0,1&lt;/transform>
  &lt;/position>
  &lt;content font-italic="0" letter-spacing="0" font-weight="50" box-height="26" shadow="0;#64000000;3;3;3" font="DejaVu Sans Mono" font-underline="0" font-pixel-size="22" line-spacing="0" box-width="66.1719" font-color="255,255,255,255" alignment="1">1 PoB&lt;/content>
 &lt;/item>
 &lt;item z-index="7" type="QGraphicsTextItem">
  &lt;position x="434" y="486">
   &lt;transform>1,0,0,0,1,0,0,0,1&lt;/transform>
  &lt;/position>
  &lt;content font-italic="0" letter-spacing="0" font-weight="50" box-height="26" shadow="0;#64000000;3;3;3" font="DejaVu Sans Mono" font-underline="0" font-pixel-size="22" line-spacing="0" box-width="411.266" font-color="255,255,255,255" alignment="1">News footage of landing RWY 04R&lt;/content>
 &lt;/item>
 &lt;item z-index="6" type="QGraphicsTextItem">
  &lt;position x="494" y="454">
   &lt;transform>1,0,0,0,1,0,0,0,1&lt;/transform>
  &lt;/position>
  &lt;content font-italic="0" letter-spacing="0" font-weight="50" box-height="26" shadow="0;#64000000;3;3;3" font="DejaVu Sans Mono" font-underline="0" font-pixel-size="22" line-spacing="0" box-width="291.156" font-color="255,255,255,255" alignment="1">Archer Tower recording&lt;/content>
 &lt;/item>
 &lt;item z-index="5" type="QGraphicsTextItem">
  &lt;position x="239" y="240">
   &lt;transform>1,0,0,0,1,0,0,0,1&lt;/transform>
  &lt;/position>
  &lt;content font-italic="0" letter-spacing="0" font-weight="50" box-height="42" shadow="0;#64000000;3;3;3" font="DejaVu Sans Mono" font-underline="0" font-pixel-size="36" line-spacing="0" box-width="801.859" font-color="255,255,255,255" alignment="1">Archerfield Airport, Australia (YBAF)&lt;/content>
 &lt;/item>
 &lt;item z-index="4" type="QGraphicsTextItem">
  &lt;position x="322" y="293">
   &lt;transform>1,0,0,0,1,0,0,0,1&lt;/transform>
  &lt;/position>
  &lt;content font-italic="0" letter-spacing="0" font-weight="50" box-height="26" shadow="0;#64000000;3;3;3" font="DejaVu Sans Mono" font-underline="0" font-pixel-size="22" line-spacing="0" box-width="635.25" font-color="255,255,255,255" alignment="1">Malfunctioned left main gear on take-off RWY 10L&lt;/content>
 &lt;/item>
 &lt;item z-index="2" type="QGraphicsTextItem">
  &lt;position x="575" y="153">
   &lt;transform>1,0,0,0,1,0,0,0,1&lt;/transform>
  &lt;/position>
  &lt;content font-italic="0" letter-spacing="0" font-weight="50" box-height="42" shadow="0;#64000000;3;3;3" font="DejaVu Sans Mono" font-underline="0" font-pixel-size="36" line-spacing="0" box-width="130.031" font-color="255,255,255,255" alignment="1">VH-MFY&lt;/content>
 &lt;/item>
 &lt;item z-index="1" type="QGraphicsTextItem">
  &lt;position x="355" y="79">
   &lt;transform>1,0,0,0,1,0,0,0,1&lt;/transform>
  &lt;/position>
  &lt;content font-italic="0" letter-spacing="0" font-weight="50" box-height="26" shadow="0;#64000000;3;3;3" font="DejaVu Sans Mono" font-underline="0" font-pixel-size="22" line-spacing="0" box-width="569.078" font-color="255,255,255,255" alignment="1">9:01am 25 November 2016 local time (UTC+10)&lt;/content>
 &lt;/item>
 &lt;item z-index="0" type="QGraphicsTextItem">
  &lt;position x="541" y="46">
   &lt;transform>1,0,0,0,1,0,0,0,1&lt;/transform>
  &lt;/position>
  &lt;content font-italic="0" letter-spacing="0" font-weight="50" box-height="26" shadow="0;#64000000;3;3;3" font="DejaVu Sans Mono" font-underline="0" font-pixel-size="22" line-spacing="0" box-width="198.516" font-color="255,255,255,255" alignment="1">20161125230144Z&lt;/content>
 &lt;/item>
 &lt;startviewport rect="0,0,1280,720"/>
 &lt;endviewport rect="0,0,1280,720"/>
 &lt;background color="0,0,0,0"/>
&lt;/kdenlivetitle>
</property>
  <property name="kdenlive:duration">150</property>
  <property name="force_reload">0</property>
  <property name="meta.media.width">1280</property>
  <property name="meta.media.height">720</property>
  <property name="kdenlive:file_hash">af3eb301cf0338b26189add2cb22cab9</property>
  <property name="global_feed">1</property>
 </producer>
 <playlist id="main bin">
  <property name="kdenlive:docproperties.audiotargettrack">2</property>
  <property name="kdenlive:docproperties.dirtypreviewchunks"/>
  <property name="kdenlive:docproperties.disablepreview">0</property>
  <property name="kdenlive:docproperties.documentid">1480145493388</property>
  <property name="kdenlive:docproperties.enableproxy">0</property>
  <property name="kdenlive:docproperties.generateimageproxy">0</property>
  <property name="kdenlive:docproperties.generateproxy">0</property>
  <property name="kdenlive:docproperties.kdenliveversion">16.08.1</property>
  <property name="kdenlive:docproperties.position">0</property>
  <property name="kdenlive:docproperties.previewchunks"/>
  <property name="kdenlive:docproperties.previewextension"/>
  <property name="kdenlive:docproperties.previewparameters"/>
  <property name="kdenlive:docproperties.profile">atsc_720p_2997</property>
  <property name="kdenlive:docproperties.projectfolder">kdenlive</property>
  <property name="kdenlive:docproperties.proxyextension">mpg</property>
  <property name="kdenlive:docproperties.proxyimageminsize">2000</property>
  <property name="kdenlive:docproperties.proxyminsize">1000</property>
  <property name="kdenlive:docproperties.proxyparams">-s 640x480 -g 5 -qscale 6 -ab 128k -vcodec mpeg2video -acodec mp2</property>
  <property name="kdenlive:docproperties.version">0.95</property>
  <property name="kdenlive:docproperties.verticalzoom">1</property>
  <property name="kdenlive:docproperties.videotargettrack">3</property>
  <property name="kdenlive:docproperties.zonein">0</property>
  <property name="kdenlive:docproperties.zoneout">100</property>
  <property name="kdenlive:docproperties.zoom">9</property>
  <property name="kdenlive:documentnotes"/>
  <property name="kdenlive:clipgroups">&lt;groups>
 &lt;group>
  &lt;clipitem position="47826" track="2"/>
  &lt;clipitem position="7572" track="2"/>
  &lt;clipitem position="21483" track="2"/>
  &lt;clipitem position="62859" track="2"/>
  &lt;clipitem position="64595" track="2"/>
  &lt;clipitem position="48101" track="2"/>
  &lt;clipitem position="19772" track="2"/>
  &lt;clipitem position="37518" track="2"/>
  &lt;clipitem position="64905" track="2"/>
  &lt;clipitem position="12607" track="2"/>
  &lt;clipitem position="66125" track="2"/>
  &lt;clipitem position="38308" track="2"/>
  &lt;clipitem position="20587" track="2"/>
  &lt;clipitem position="7061" track="2"/>
  &lt;clipitem position="50878" track="2"/>
  &lt;clipitem position="15387" track="2"/>
  &lt;clipitem position="6996" track="2"/>
  &lt;clipitem position="36724" track="2"/>
  &lt;clipitem position="20598" track="2"/>
  &lt;clipitem position="32847" track="2"/>
  &lt;clipitem position="53265" track="2"/>
  &lt;clipitem position="6996" track="3"/>
  &lt;clipitem position="41252" track="2"/>
  &lt;clipitem position="34799" track="2"/>
  &lt;clipitem position="37027" track="2"/>
  &lt;clipitem position="41780" track="2"/>
  &lt;clipitem position="22259" track="2"/>
  &lt;clipitem position="65210" track="2"/>
  &lt;clipitem position="7585" track="2"/>
  &lt;clipitem position="35511" track="2"/>
  &lt;clipitem position="17900" track="2"/>
  &lt;clipitem position="62964" track="2"/>
  &lt;clipitem position="48913" track="2"/>
  &lt;clipitem position="45438" track="2"/>
  &lt;clipitem position="22378" track="2"/>
  &lt;clipitem position="17856" track="2"/>
  &lt;clipitem position="48954" track="2"/>
  &lt;clipitem position="12596" track="2"/>
  &lt;clipitem position="65588" track="2"/>
  &lt;clipitem position="25520" track="2"/>
  &lt;clipitem position="38775" track="2"/>
  &lt;clipitem position="15366" track="2"/>
  &lt;clipitem position="11707" track="2"/>
  &lt;clipitem position="32253" track="2"/>
  &lt;clipitem position="26644" track="2"/>
  &lt;clipitem position="40544" track="2"/>
  &lt;clipitem position="20755" track="2"/>
  &lt;clipitem position="19791" track="2"/>
  &lt;clipitem position="64670" track="2"/>
  &lt;clipitem position="53450" track="2"/>
  &lt;clipitem position="10464" track="2"/>
  &lt;clipitem position="46322" track="2"/>
  &lt;clipitem position="65946" track="2"/>
  &lt;clipitem position="20802" track="2"/>
  &lt;clipitem position="43751" track="2"/>
  &lt;clipitem position="61591" track="2"/>
  &lt;clipitem position="27771" track="2"/>
  &lt;clipitem position="47223" track="2"/>
  &lt;clipitem position="3099" track="2"/>
  &lt;clipitem position="64904" track="2"/>
  &lt;clipitem position="45432" track="2"/>
  &lt;clipitem position="41874" track="2"/>
  &lt;clipitem position="35550" track="2"/>
  &lt;clipitem position="64077" track="2"/>
  &lt;clipitem position="26371" track="2"/>
  &lt;clipitem position="3099" track="3"/>
  &lt;clipitem position="33727" track="2"/>
  &lt;clipitem position="25803" track="2"/>
  &lt;clipitem position="28156" track="2"/>
  &lt;clipitem position="11808" track="2"/>
  &lt;clipitem position="42841" track="2"/>
  &lt;clipitem position="32891" track="2"/>
  &lt;clipitem position="35957" track="2"/>
  &lt;clipitem position="20247" track="2"/>
  &lt;clipitem position="50580" track="2"/>
  &lt;clipitem position="26577" track="2"/>
  &lt;clipitem position="8719" track="2"/>
  &lt;clipitem position="10479" track="2"/>
  &lt;clipitem position="24791" track="2"/>
  &lt;clipitem position="65036" track="2"/>
  &lt;clipitem position="20385" track="2"/>
  &lt;clipitem position="32030" track="2"/>
  &lt;clipitem position="50622" track="2"/>
  &lt;clipitem position="43790" track="2"/>
  &lt;clipitem position="53450" track="3"/>
  &lt;clipitem position="40584" track="2"/>
  &lt;clipitem position="37350" track="2"/>
  &lt;clipitem position="65609" track="2"/>
  &lt;clipitem position="33902" track="2"/>
  &lt;clipitem position="41239" track="2"/>
  &lt;clipitem position="25852" track="2"/>
  &lt;clipitem position="21472" track="2"/>
  &lt;clipitem position="34392" track="2"/>
  &lt;clipitem position="43058" track="2"/>
  &lt;clipitem position="61674" track="2"/>
  &lt;clipitem position="8660" track="2"/>
 &lt;/group>
&lt;/groups>
</property>
  <property name="xml_retain">1</property>
  <entry out="56879" producer="1" in="0"/>
  <entry out="57000" producer="2" in="0"/>
  <entry out="56879" producer="3" in="0"/>
  <entry out="56879" producer="4" in="0"/>
  <entry out="56879" producer="5" in="0"/>
  <blank length="14999"/>
  <entry out="17981" producer="8" in="0"/>
  <entry out="149" producer="9" in="0"/>
 </playlist>
 <producer id="black" out="286006" in="0">
  <property name="length">286007</property>
  <property name="eof">pause</property>
  <property name="resource">black</property>
  <property name="aspect_ratio">0</property>
  <property name="mlt_service">colour</property>
  <property name="set.test_audio">0</property>
 </producer>
 <playlist id="black_track">
  <entry out="67084" producer="black" in="0"/>
 </playlist>
 <playlist id="playlist1">
  <property name="kdenlive:track_name">Audio 2</property>
  <property name="kdenlive:audio_track">1</property>
 </playlist>
 <producer id="4_playlist2" title="Anonymous Submission" out="56942" in="0">
  <property name="length">00:31:40;00</property>
  <property name="eof">pause</property>
  <property name="resource">/tmp/YBAF2-Nov-25-2016-2300Z.mp3</property>
  <property name="audio_index">0</property>
  <property name="video_index">-1</property>
  <property name="mute_on_pause">1</property>
  <property name="mlt_service">avformat-novalidate</property>
  <property name="seekable">1</property>
  <property name="kdenlive:folderid">-1</property>
  <property name="kdenlive:file_size">7600563</property>
  <property name="kdenlive:file_hash">ac26e28b563402f26782374c35163097</property>
  <property name="global_feed">1</property>
  <property name="xml">was here</property>
  <property name="meta.media.nb_streams">1</property>
  <property name="meta.media.0.stream.type">audio</property>
  <property name="meta.media.0.codec.sample_fmt">s16p</property>
  <property name="meta.media.0.codec.sample_rate">22050</property>
  <property name="meta.media.0.codec.channels">1</property>
  <property name="meta.media.0.codec.name">mp3</property>
  <property name="meta.media.0.codec.long_name">MP3 (MPEG audio layer 3)</property>
  <property name="meta.media.0.codec.bit_rate">32000</property>
  <property name="meta.attr.title.markup">Nov-25-2016-2300Z             </property>
  <property name="meta.attr.artist.markup">YBAF Gnd/Twr #2 (LiveATC.net) </property>
  <property name="meta.attr.album.markup"/>
  <property name="meta.attr.date.markup"/>
  <property name="meta.attr.comment.markup"/>
  <property name="meta.attr.encoder.markup">Lavf55.32.100</property>
 </producer>
 <producer id="slowmotion:4:20:1:0" out="2846" in="0">
  <property name="length">2847</property>
  <property name="eof">pause</property>
  <property name="resource">20:/tmp/YBAF2-Nov-25-2016-2300Z.mp3</property>
  <property name="aspect_ratio">1</property>
  <property name="meta.media.nb_streams">1</property>
  <property name="meta.media.0.stream.type">audio</property>
  <property name="meta.media.0.codec.sample_fmt">s16p</property>
  <property name="meta.media.0.codec.sample_rate">22050</property>
  <property name="meta.media.0.codec.channels">1</property>
  <property name="meta.media.0.codec.name">mp3</property>
  <property name="meta.media.0.codec.long_name">MP3 (MPEG audio layer 3)</property>
  <property name="meta.media.0.codec.bit_rate">32000</property>
  <property name="meta.attr.title.markup">Nov-25-2016-2300Z             </property>
  <property name="meta.attr.artist.markup">YBAF Gnd/Twr #2 (LiveATC.net) </property>
  <property name="meta.attr.album.markup"/>
  <property name="meta.attr.date.markup"/>
  <property name="meta.attr.comment.markup"/>
  <property name="meta.attr.encoder.markup">Lavf55.32.100</property>
  <property name="seekable">1</property>
  <property name="audio_index">0</property>
  <property name="video_index">-1</property>
  <property name="mute_on_pause">1</property>
  <property name="warp_speed">20</property>
  <property name="warp_resource">/tmp/YBAF2-Nov-25-2016-2300Z.mp3</property>
  <property name="mlt_service">timewarp</property>
 </producer>
 <producer id="3_playlist2" title="Anonymous Submission" out="56880" in="0">
  <property name="length">00:31:37;28</property>
  <property name="eof">pause</property>
  <property name="resource">work/20161126-vh-mfy-ybaf/media/YBAF2-Nov-25-2016-2330Z.mp3</property>
  <property name="audio_index">0</property>
  <property name="video_index">-1</property>
  <property name="mute_on_pause">1</property>
  <property name="mlt_service">avformat-novalidate</property>
  <property name="seekable">1</property>
  <property name="kdenlive:folderid">-1</property>
  <property name="kdenlive:file_size">7600563</property>
  <property name="kdenlive:file_hash">945843d77141b7e33b3be1f5b52565a9</property>
  <property name="global_feed">1</property>
  <property name="xml">was here</property>
 </producer>
 <producer id="2_playlist2" title="Anonymous Submission" out="57001" in="0">
  <property name="length">00:31:41;29</property>
  <property name="eof">pause</property>
  <property name="resource">work/20161126-vh-mfy-ybaf/media/YBAF2-Nov-26-2016-0000Z.mp3</property>
  <property name="audio_index">0</property>
  <property name="video_index">-1</property>
  <property name="mute_on_pause">1</property>
  <property name="mlt_service">avformat-novalidate</property>
  <property name="seekable">1</property>
  <property name="kdenlive:folderid">-1</property>
  <property name="kdenlive:file_size">7616654</property>
  <property name="kdenlive:file_hash">43056ec6412665dfa61d17224d329c4b</property>
  <property name="global_feed">1</property>
  <property name="xml">was here</property>
 </producer>
 <producer id="1_playlist2" title="Anonymous Submission" out="56880" in="0">
  <property name="length">00:31:37;28</property>
  <property name="eof">pause</property>
  <property name="resource">work/20161126-vh-mfy-ybaf/media/YBAF2-Nov-26-2016-0030Z.mp3</property>
  <property name="audio_index">0</property>
  <property name="video_index">-1</property>
  <property name="mute_on_pause">1</property>
  <property name="mlt_service">avformat-novalidate</property>
  <property name="seekable">1</property>
  <property name="kdenlive:folderid">-1</property>
  <property name="kdenlive:file_size">7600563</property>
  <property name="kdenlive:file_hash">c7c28b0e59e90ed673dbf1550a604653</property>
  <property name="global_feed">1</property>
  <property name="xml">was here</property>
 </producer>
 <playlist id="playlist2">
  <property name="kdenlive:track_name">Audio 1</property>
  <property name="kdenlive:audio_track">1</property>
  <blank length="3099"/>
  <entry out="5829" producer="4_playlist2" in="1933"/>
  <entry out="355" producer="slowmotion:4:20:1:0" in="291"/>
  <entry out="7649" producer="4_playlist2" in="7139"/>
  <entry out="395" producer="4_playlist2" in="383"/>
  <entry out="8984" producer="4_playlist2" in="7910"/>
  <entry out="507" producer="4_playlist2" in="449"/>
  <entry out="11912" producer="4_playlist2" in="10168"/>
  <entry out="609" producer="4_playlist2" in="595"/>
  <entry out="13439" producer="4_playlist2" in="12212"/>
  <entry out="772" producer="4_playlist2" in="672"/>
  <entry out="16250" producer="4_playlist2" in="15463"/>
  <entry out="822" producer="4_playlist2" in="812"/>
  <entry out="19227" producer="4_playlist2" in="16469"/>
  <entry out="981" producer="4_playlist2" in="961"/>
  <entry out="22109" producer="4_playlist2" in="19641"/>
  <entry out="1148" producer="4_playlist2" in="1105"/>
  <entry out="24863" producer="4_playlist2" in="22992"/>
  <entry out="1261" producer="4_playlist2" in="1243"/>
  <entry out="25707" producer="4_playlist2" in="25252"/>
  <entry out="1422" producer="4_playlist2" in="1285"/>
  <entry out="28673" producer="4_playlist2" in="28472"/>
  <entry out="1443" producer="4_playlist2" in="1433"/>
  <entry out="29044" producer="4_playlist2" in="28888"/>
  <entry out="1498" producer="4_playlist2" in="1452"/>
  <entry out="30663" producer="4_playlist2" in="29994"/>
  <entry out="1543" producer="4_playlist2" in="1533"/>
  <entry out="31661" producer="4_playlist2" in="30886"/>
  <entry out="1701" producer="4_playlist2" in="1583"/>
  <entry out="36460" producer="4_playlist2" in="34048"/>
  <entry out="2551" producer="4_playlist2" in="1823"/>
  <entry out="51323" producer="4_playlist2" in="51041"/>
  <entry out="2614" producer="4_playlist2" in="2566"/>
  <entry out="52825" producer="4_playlist2" in="52307"/>
  <entry out="2846" producer="4_playlist2" in="2641"/>
  <entry out="66" producer="3_playlist2" in="0"/>
  <entry out="2470" producer="3_playlist2" in="1344"/>
  <entry out="507" producer="3_playlist2" in="123"/>
  <entry out="14046" producer="3_playlist2" in="10173"/>
  <entry out="924" producer="3_playlist2" in="702"/>
  <entry out="19100" producer="3_playlist2" in="18507"/>
  <entry out="998" producer="3_playlist2" in="955"/>
  <entry out="20821" producer="3_playlist2" in="19986"/>
  <entry out="1214" producer="3_playlist2" in="1041"/>
  <blank length="1"/>
  <entry out="24807" producer="3_playlist2" in="24318"/>
  <entry out="1646" producer="3_playlist2" in="1240"/>
  <entry out="33660" producer="3_playlist2" in="32949"/>
  <entry out="1721" producer="3_playlist2" in="1683"/>
  <entry out="34850" producer="3_playlist2" in="34444"/>
  <entry out="2508" producer="3_playlist2" in="1742"/>
  <entry out="50486" producer="3_playlist2" in="50184"/>
  <entry out="2846" producer="3_playlist2" in="2524"/>
  <entry out="167" producer="2_playlist2" in="0"/>
  <entry out="4163" producer="2_playlist2" in="3374"/>
  <entry out="674" producer="2_playlist2" in="208"/>
  <entry out="15287" producer="2_playlist2" in="13519"/>
  <entry out="803" producer="2_playlist2" in="764"/>
  <entry out="16752" producer="2_playlist2" in="16098"/>
  <entry out="850" producer="2_playlist2" in="838"/>
  <entry out="17535" producer="2_playlist2" in="17008"/>
  <entry out="970" producer="2_playlist2" in="877"/>
  <entry out="20374" producer="2_playlist2" in="19408"/>
  <entry out="1235" producer="2_playlist2" in="1019"/>
  <entry out="25409" producer="2_playlist2" in="24717"/>
  <entry out="1309" producer="2_playlist2" in="1271"/>
  <entry out="27837" producer="2_playlist2" in="26196"/>
  <entry out="1397" producer="2_playlist2" in="1392"/>
  <entry out="28842" producer="2_playlist2" in="27959"/>
  <entry out="2342" producer="2_playlist2" in="1442"/>
  <entry out="47476" producer="2_playlist2" in="46874"/>
  <entry out="2648" producer="2_playlist2" in="2374"/>
  <entry out="53790" producer="2_playlist2" in="52979"/>
  <entry out="2730" producer="2_playlist2" in="2690"/>
  <entry out="56226" producer="2_playlist2" in="54601"/>
  <entry out="2852" producer="2_playlist2" in="2811"/>
  <entry out="255" producer="1_playlist2" in="0"/>
  <entry out="7523" producer="1_playlist2" in="5137"/>
  <entry out="560" producer="1_playlist2" in="376"/>
  <entry out="19360" producer="1_playlist2" in="11220"/>
  <entry out="1049" producer="1_playlist2" in="968"/>
  <blank length="1"/>
  <entry out="22195" producer="1_playlist2" in="21011"/>
  <entry out="1214" producer="1_playlist2" in="1110"/>
  <entry out="25407" producer="1_playlist2" in="24295"/>
  <entry out="1787" producer="1_playlist2" in="1270"/>
  <entry out="35834" producer="1_playlist2" in="35760"/>
  <entry out="2024" producer="1_playlist2" in="1791"/>
  <entry out="40507" producer="1_playlist2" in="40507"/>
  <entry out="40638" producer="1_playlist2" in="40508"/>
  <entry out="2204" producer="1_playlist2" in="2031"/>
  <entry out="44495" producer="1_playlist2" in="44118"/>
  <entry out="2244" producer="1_playlist2" in="2224"/>
  <entry out="45241" producer="1_playlist2" in="44905"/>
  <entry out="2440" producer="1_playlist2" in="2262"/>
  <entry out="49769" producer="1_playlist2" in="48820"/>
 </playlist>
 <producer id="8_video" title="Anonymous Submission" out="17981" in="0">
  <property name="length">00:10:00;00</property>
  <property name="eof">pause</property>
  <property name="resource">Downloads/10 Minute Timer (count-up stopwatch).mp4</property>
  <property name="audio_index">-1</property>
  <property name="video_index">0</property>
  <property name="mute_on_pause">1</property>
  <property name="mlt_service">avformat-novalidate</property>
  <property name="seekable">1</property>
  <property name="aspect_ratio">1</property>
  <property name="kdenlive:folderid">-1</property>
  <property name="kdenlive:file_size">14310317</property>
  <property name="kdenlive:file_hash">f4c97062df40acd5aa51430325136ca1</property>
  <property name="global_feed">1</property>
  <property name="xml">was here</property>
  <property name="meta.media.nb_streams">2</property>
  <property name="meta.media.0.stream.type">video</property>
  <property name="meta.media.0.stream.frame_rate">25</property>
  <property name="meta.media.0.stream.sample_aspect_ratio">0</property>
  <property name="meta.media.0.codec.width">1280</property>
  <property name="meta.media.0.codec.height">720</property>
  <property name="meta.media.0.codec.rotate">0</property>
  <property name="meta.media.0.codec.frame_rate">50</property>
  <property name="meta.media.0.codec.pix_fmt">yuv420p</property>
  <property name="meta.media.0.codec.sample_aspect_ratio">1</property>
  <property name="meta.media.0.codec.colorspace">709</property>
  <property name="meta.media.0.codec.name">h264</property>
  <property name="meta.media.0.codec.long_name">H.264 / AVC / MPEG-4 AVC / MPEG-4 part 10</property>
  <property name="meta.media.0.codec.bit_rate">61770</property>
  <property name="meta.attr.0.stream.creation_time.markup">2016-08-15 13:12:36</property>
  <property name="meta.attr.0.stream.handler_name.markup">ISO Media file produced by Google Inc.</property>
  <property name="meta.media.1.stream.type">audio</property>
  <property name="meta.media.1.codec.sample_fmt">fltp</property>
  <property name="meta.media.1.codec.sample_rate">44100</property>
  <property name="meta.media.1.codec.channels">2</property>
  <property name="meta.media.1.codec.name">aac</property>
  <property name="meta.media.1.codec.long_name">AAC (Advanced Audio Coding)</property>
  <property name="meta.media.1.codec.bit_rate">125592</property>
  <property name="meta.attr.1.stream.creation_time.markup">2016-08-15 13:12:36</property>
  <property name="meta.attr.1.stream.handler_name.markup">ISO Media file produced by Google Inc.</property>
  <property name="meta.attr.major_brand.markup">mp42</property>
  <property name="meta.attr.minor_version.markup">0</property>
  <property name="meta.attr.compatible_brands.markup">isommp42</property>
  <property name="meta.attr.creation_time.markup">2016-08-15 13:12:36</property>
  <property name="meta.media.sample_aspect_num">1</property>
  <property name="meta.media.sample_aspect_den">1</property>
  <property name="meta.media.frame_rate_num">25</property>
  <property name="meta.media.frame_rate_den">1</property>
  <property name="meta.media.colorspace">709</property>
  <property name="meta.media.color_trc">2</property>
  <property name="meta.media.width">1280</property>
  <property name="meta.media.height">720</property>
  <property name="meta.media.top_field_first">0</property>
  <property name="meta.media.progressive">1</property>
 </producer>
 <producer id="slowmotion:8:20:1:1" out="898" in="0">
  <property name="length">899</property>
  <property name="eof">pause</property>
  <property name="resource">20:/home/tmorris/Downloads/10 Minute Timer (count-up stopwatch).mp4</property>
  <property name="aspect_ratio">1</property>
  <property name="meta.media.nb_streams">2</property>
  <property name="meta.media.0.stream.type">video</property>
  <property name="meta.media.0.stream.frame_rate">25</property>
  <property name="meta.media.0.stream.sample_aspect_ratio">0</property>
  <property name="meta.media.0.codec.width">1280</property>
  <property name="meta.media.0.codec.height">720</property>
  <property name="meta.media.0.codec.rotate">0</property>
  <property name="meta.media.0.codec.frame_rate">50</property>
  <property name="meta.media.0.codec.pix_fmt">yuv420p</property>
  <property name="meta.media.0.codec.sample_aspect_ratio">1</property>
  <property name="meta.media.0.codec.colorspace">709</property>
  <property name="meta.media.0.codec.name">h264</property>
  <property name="meta.media.0.codec.long_name">H.264 / AVC / MPEG-4 AVC / MPEG-4 part 10</property>
  <property name="meta.media.0.codec.bit_rate">61770</property>
  <property name="meta.attr.0.stream.creation_time.markup">2016-08-15 13:12:36</property>
  <property name="meta.attr.0.stream.handler_name.markup">ISO Media file produced by Google Inc.</property>
  <property name="meta.media.1.stream.type">audio</property>
  <property name="meta.media.1.codec.sample_fmt">fltp</property>
  <property name="meta.media.1.codec.sample_rate">44100</property>
  <property name="meta.media.1.codec.channels">2</property>
  <property name="meta.media.1.codec.name">aac</property>
  <property name="meta.media.1.codec.long_name">AAC (Advanced Audio Coding)</property>
  <property name="meta.media.1.codec.bit_rate">125592</property>
  <property name="meta.attr.1.stream.creation_time.markup">2016-08-15 13:12:36</property>
  <property name="meta.attr.1.stream.handler_name.markup">ISO Media file produced by Google Inc.</property>
  <property name="meta.attr.major_brand.markup">mp42</property>
  <property name="meta.attr.minor_version.markup">0</property>
  <property name="meta.attr.compatible_brands.markup">isommp42</property>
  <property name="meta.attr.creation_time.markup">2016-08-15 13:12:36</property>
  <property name="seekable">1</property>
  <property name="meta.media.sample_aspect_num">1</property>
  <property name="meta.media.sample_aspect_den">1</property>
  <property name="audio_index">-1</property>
  <property name="video_index">0</property>
  <property name="mute_on_pause">1</property>
  <property name="warp_speed">20</property>
  <property name="warp_resource">Downloads/10 Minute Timer (count-up stopwatch).mp4</property>
  <property name="mlt_service">timewarp</property>
  <property name="meta.media.frame_rate_num">25</property>
  <property name="meta.media.frame_rate_den">1</property>
  <property name="meta.media.colorspace">709</property>
  <property name="meta.media.color_trc">2</property>
  <property name="meta.media.width">1280</property>
  <property name="meta.media.height">720</property>
  <property name="meta.media.top_field_first">0</property>
  <property name="meta.media.progressive">1</property>
 </producer>
 <playlist id="playlist3">
  <property name="kdenlive:track_name">Video 1</property>
  <blank length="3099"/>
  <entry out="6995" producer="8_video" in="3099"/>
  <entry out="414" producer="slowmotion:8:20:1:1" in="349"/>
  <entry out="8815" producer="8_video" in="8305"/>
  <entry out="453" producer="8_video" in="441"/>
  <entry out="10150" producer="8_video" in="9076"/>
  <entry out="565" producer="8_video" in="507"/>
  <entry out="13078" producer="8_video" in="11334"/>
  <entry out="667" producer="8_video" in="653"/>
  <entry out="14605" producer="8_video" in="13378"/>
  <entry out="830" producer="8_video" in="730"/>
  <entry out="17416" producer="8_video" in="16629"/>
  <entry out="880" producer="8_video" in="870"/>
  <entry out="17981" producer="8_video" in="17635"/>
  <entry out="2411" producer="8_video" in="0"/>
  <entry out="140" producer="8_video" in="120"/>
  <entry out="5293" producer="8_video" in="2825"/>
  <entry out="307" producer="8_video" in="264"/>
  <entry out="8047" producer="8_video" in="6176"/>
  <entry out="420" producer="8_video" in="402"/>
  <entry out="8891" producer="8_video" in="8436"/>
  <blank length="1"/>
  <entry out="581" producer="8_video" in="444"/>
  <entry out="11857" producer="8_video" in="11656"/>
  <entry out="602" producer="8_video" in="592"/>
  <entry out="12228" producer="8_video" in="12072"/>
  <entry out="657" producer="8_video" in="611"/>
  <entry out="13847" producer="8_video" in="13178"/>
  <entry out="702" producer="8_video" in="692"/>
  <entry out="14845" producer="8_video" in="14070"/>
  <entry out="860" producer="8_video" in="742"/>
  <entry out="17981" producer="8_video" in="17232"/>
  <entry out="1662" producer="8_video" in="0"/>
  <entry out="811" producer="8_video" in="83"/>
  <entry out="16525" producer="8_video" in="16243"/>
  <entry out="874" producer="8_video" in="826"/>
  <entry out="17981" producer="8_video" in="17509"/>
  <entry out="45" producer="8_video" in="0"/>
  <entry out="274" producer="8_video" in="2"/>
  <entry out="6634" producer="8_video" in="5508"/>
  <entry out="715" producer="8_video" in="331"/>
  <entry out="17981" producer="8_video" in="14337"/>
  <entry out="228" producer="8_video" in="0"/>
  <entry out="233" producer="8_video" in="11"/>
  <entry out="5282" producer="8_video" in="4689"/>
  <entry out="307" producer="8_video" in="264"/>
  <entry out="7003" producer="8_video" in="6168"/>
  <entry out="524" producer="8_video" in="350"/>
  <entry out="10989" producer="8_video" in="10500"/>
  <entry out="898" producer="8_video" in="549"/>
  <entry out="56" producer="8_video" in="0"/>
  <entry out="1860" producer="8_video" in="1149"/>
  <entry out="131" producer="8_video" in="93"/>
  <entry out="3050" producer="8_video" in="2644"/>
  <entry out="898" producer="8_video" in="152"/>
  <entry out="19" producer="8_video" in="0"/>
  <entry out="704" producer="8_video" in="402"/>
  <entry out="525" producer="8_video" in="35"/>
  <entry out="11325" producer="8_video" in="10536"/>
  <entry out="898" producer="8_video" in="566"/>
  <entry out="133" producer="8_video" in="0"/>
  <entry out="4467" producer="8_video" in="2699"/>
  <entry out="262" producer="8_video" in="223"/>
  <entry out="5932" producer="8_video" in="5278"/>
  <entry out="309" producer="8_video" in="297"/>
  <entry out="6715" producer="8_video" in="6188"/>
  <entry out="429" producer="8_video" in="336"/>
  <entry out="9554" producer="8_video" in="8588"/>
  <entry out="694" producer="8_video" in="478"/>
  <entry out="14589" producer="8_video" in="13897"/>
  <entry out="768" producer="8_video" in="730"/>
  <entry out="17017" producer="8_video" in="15376"/>
  <entry out="856" producer="8_video" in="851"/>
  <entry out="17981" producer="8_video" in="17139"/>
  <entry out="40" producer="8_video" in="0"/>
  <entry out="898" producer="8_video" in="2"/>
  <entry out="3" producer="8_video" in="0"/>
  <entry out="692" producer="8_video" in="90"/>
  <entry out="309" producer="8_video" in="35"/>
  <entry out="7006" producer="8_video" in="6195"/>
  <entry out="389" producer="8_video" in="350"/>
  <entry out="9442" producer="8_video" in="7817"/>
  <entry out="769" producer="8_video" in="472"/>
  <entry out="17803" producer="8_video" in="15417"/>
  <entry out="898" producer="8_video" in="890"/>
  <entry out="174" producer="8_video" in="0"/>
  <entry out="11658" producer="8_video" in="3518"/>
  <blank length="2"/>
  <entry out="665" producer="8_video" in="583"/>
  <entry out="14493" producer="8_video" in="13309"/>
  <entry out="828" producer="8_video" in="725"/>
  <entry out="17705" producer="8_video" in="16593"/>
  <entry out="898" producer="8_video" in="885"/>
  <entry out="502" producer="8_video" in="0"/>
  <blank length="2"/>
  <entry out="10150" producer="8_video" in="10076"/>
  <entry out="740" producer="8_video" in="507"/>
  <blank length="1"/>
  <entry out="14954" producer="8_video" in="14824"/>
  <entry out="14962" producer="8_video" in="14955"/>
  <entry out="898" producer="8_video" in="748"/>
  <entry out="21" producer="8_video" in="0"/>
  <entry out="829" producer="8_video" in="452"/>
  <entry out="61" producer="8_video" in="42"/>
  <entry out="1575" producer="8_video" in="1239"/>
  <entry out="6283" producer="8_video" in="5154"/>
 </playlist>
 <playlist id="playlist4">
  <property name="kdenlive:track_name">Video 2</property>
 </playlist>
 <playlist id="playlist5">
  <property name="kdenlive:track_name">Video 3</property>
 </playlist>
 <tractor id="maintractor" title="Anonymous Submission" global_feed="1" out="67084" in="0">
  <track producer="black_track"/>
  <track producer="playlist1" hide="video"/>
  <track producer="playlist2" hide="video"/>
  <track producer="playlist3"/>
  <track producer="playlist4"/>
  <track producer="playlist5"/>
  <transition id="transition0">
   <property name="a_track">0</property>
   <property name="b_track">1</property>
   <property name="mlt_service">mix</property>
   <property name="always_active">1</property>
   <property name="combine">1</property>
   <property name="internal_added">237</property>
  </transition>
  <transition id="transition1">
   <property name="a_track">0</property>
   <property name="b_track">2</property>
   <property name="mlt_service">mix</property>
   <property name="always_active">1</property>
   <property name="combine">1</property>
   <property name="internal_added">237</property>
  </transition>
  <transition id="transition2">
   <property name="a_track">0</property>
   <property name="b_track">3</property>
   <property name="mlt_service">mix</property>
   <property name="always_active">1</property>
   <property name="combine">1</property>
   <property name="internal_added">237</property>
  </transition>
  <transition id="transition4">
   <property name="a_track">0</property>
   <property name="b_track">4</property>
   <property name="mlt_service">mix</property>
   <property name="always_active">1</property>
   <property name="combine">1</property>
   <property name="internal_added">237</property>
  </transition>
  <transition id="transition6">
   <property name="a_track">0</property>
   <property name="b_track">5</property>
   <property name="mlt_service">mix</property>
   <property name="always_active">1</property>
   <property name="combine">1</property>
   <property name="internal_added">237</property>
  </transition>
  <transition id="transition3">
   <property name="a_track">0</property>
   <property name="b_track">3</property>
   <property name="version">0.9</property>
   <property name="mlt_service">frei0r.cairoblend</property>
   <property name="internal_added">237</property>
  </transition>
  <transition id="transition5">
   <property name="a_track">0</property>
   <property name="b_track">4</property>
   <property name="version">0.9</property>
   <property name="mlt_service">frei0r.cairoblend</property>
   <property name="internal_added">237</property>
  </transition>
  <transition id="transition7">
   <property name="a_track">0</property>
   <property name="b_track">5</property>
   <property name="version">0.9</property>
   <property name="mlt_service">frei0r.cairoblend</property>
   <property name="internal_added">237</property>
  </transition>
 </tractor>
</mlt>
